<svg xmlns="http://www.w3.org/2000/svg" viewBox="0 0 96 120" x="0px" y="0px" fill="#2494AE"><g><path d="M67.1558,52.3867A8.8958,8.8958,0,0,0,63.3,53.4413a21.0758,21.0758,0,0,1-9.035,2.1289,20.1924,20.1924,0,0,1-8.8983-2.1289,7.2508,7.2508,0,0,0-3.543-1.0546,8.897,8.897,0,0,0-3.8593,1.0546A21.0592,21.0592,0,0,1,28.9337,55.57a20.1681,20.1681,0,0,1-8.8984-2.1289,7.289,7.289,0,0,0-3.4582-1.0419l8.06,30.0924a1.9986,1.9986,0,0,0,2.5938,1.371l10.1209-3.539,9.1132,10.9335a1.9893,1.9893,0,0,0,1.3672.7109c.0547.0039.1132.0078.1679.0078a1.9911,1.9911,0,0,0,1.3008-.48L62.2926,80.359l6.8124,3.4062a2.0023,2.0023,0,0,0,2.8359-1.3047L78.6782,55.515a20.3237,20.3237,0,0,1-7.9794-2.0737A7.2508,7.2508,0,0,0,67.1558,52.3867Z"/><path d="M87.8079,47.1992a2.0031,2.0031,0,0,0-2.66-.957,12.8485,12.8485,0,0,1-5.8517,1.292L67.898,13.3442a1.998,1.998,0,0,0-1.4375-1.3125,1.9733,1.9733,0,0,0-1.8749.5312L58.363,18.7855,49.6951,4.9185a2.0744,2.0744,0,0,0-3.3906,0L37.27,19.3754l-6.3749-3.1875a2.0017,2.0017,0,0,0-2.77,1.0937l-10.109,27.204a16.0127,16.0127,0,0,0-8.8947,1.7683,2,2,0,0,0,1.7578,3.5937c3.9843-1.9453,7.3319-1.9531,10.91,0a15.9639,15.9639,0,0,0,14.4217,0c3.9843-1.9453,7.332-1.9531,10.91,0a15.9721,15.9721,0,0,0,14.4256,0c3.9766-1.9413,7.32-1.957,10.9062,0A16.1942,16.1942,0,0,0,79.6088,51.57a16.9032,16.9032,0,0,0,7.2421-1.7109A1.9953,1.9953,0,0,0,87.8079,47.1992Zm-13.5193-.9023c-4.6328-2.5312-9.3749-2.5468-14.4725-.0547a11.96,11.96,0,0,1-10.8592.0547c-4.6289-2.5312-9.3788-2.5508-14.4764-.0547a11.9279,11.9279,0,0,1-10.8554.0547,16.9946,16.9946,0,0,0-1.7114-.8179l9.184-24.7169,6.0077,3.0038a2,2,0,0,0,2.59-.73L48,9.7505l8.3046,13.285a2,2,0,0,0,1.4687.93,2.0257,2.0257,0,0,0,1.6407-.5742L65.1246,17.68l9.5919,28.7718C74.5745,46.3884,74.4307,46.366,74.2886,46.2969Z"/></g></svg>